<svg width="135" height="56" version="1.1" viewBox="0 0 35.719 14.817" xmlns="http://www.w3.org/2000/svg">
 <g stroke-linecap="round" stroke-linejoin="round" stroke-width=".1">
  <path d="m7.5917 9.4148h1.2843q0.25631-0.00276 0.49609-0.079926 0.24253-0.07717 0.42719-0.22324 0.18466-0.14331 0.2949-0.35829 0.11024-0.21497 0.10749-0.49609 0-0.17914-0.05512-0.33348-0.052366-0.15434-0.14883-0.27836-0.09095-0.113-0.23151-0.2067-0.14056-0.093706-0.29214-0.12953v-0.00827q0.14607-0.063387 0.24804-0.13504 0.10473-0.071657 0.19017-0.17639 0.082682-0.10197 0.12953-0.23151 0.049609-0.12953 0.052365-0.28663 0.002756-0.28112-0.10749-0.48231-0.11024-0.20119-0.2949-0.33073-0.18466-0.12953-0.42168-0.19017-0.23702-0.063389-0.48507-0.066145h-1.1934zm0.51263-1.8769h0.81304q0.16261 0.00551 0.30317 0.055121 0.14056 0.049609 0.24529 0.14056 0.10473 0.093706 0.16261 0.226 0.060633 0.13229 0.057877 0.30317 0 0.16812-0.066145 0.30041-0.063389 0.13229-0.17363 0.22324-0.11024 0.09095-0.25356 0.14331-0.14331 0.049609-0.30317 0.052365h-0.78548zm0-0.42443v-1.2761h0.69728q0.14883 0.00276 0.28939 0.038585 0.14331 0.035829 0.25356 0.11024 0.10749 0.07717 0.17088 0.19568 0.066145 0.11851 0.066145 0.28663 0 0.1571-0.066145 0.27561-0.066145 0.11851-0.17363 0.19844-0.10749 0.082682-0.24529 0.12678-0.1378 0.041341-0.28112 0.044097z" fill="#1544eb" style="paint-order:markers stroke fill"/>
  <path d="m11.745 8.508 0.32797 0.33899 0.91225-0.92879 0.91501 0.92879 0.32797-0.33899-0.91226-0.92879 0.90399-0.92052-0.32797-0.33899-0.90674 0.92328-0.90399-0.92328-0.32797 0.33899 0.90123 0.92052z" fill="#fff" style="paint-order:markers stroke fill"/>
  <path d="m17.183 7.7777 0.78823 1.6371h0.53743l0.0028-0.033073-0.85162-1.7143q0.16536-0.071657 0.30317-0.17363 0.1378-0.10197 0.23702-0.23426 0.09922-0.13229 0.15434-0.2949 0.05788-0.16261 0.05788-0.35829 0-0.30317-0.10749-0.52641-0.10478-0.226-0.28943-0.37482-0.18741-0.14883-0.43546-0.22324t-0.52916-0.079926h-1.1768v4.0128h0.50711v-1.6371zm-0.80201-0.41892v-1.5379h0.66972q0.18466 0.00276 0.339 0.052365 0.1571 0.049609 0.27009 0.14607 0.113 0.099218 0.17639 0.24529 0.06339 0.14331 0.06339 0.33624 0 0.1819-0.06615 0.32246-0.06615 0.1378-0.17914 0.23426-0.11575 0.096462-0.26734 0.14883-0.15158 0.049609-0.32246 0.052365z" fill="#ec1c1c" style="paint-order:markers stroke fill"/>
  <path d="m22.711 7.6206v-0.41616h-2.9903v0.41616z" fill="#fff" style="paint-order:markers stroke fill"/>
  <path d="m25.095 9.4148h0.44372l1.265-4.0128h-0.54294l-0.88745 2.9903-0.06063 0.20119-0.05788-0.19568-0.88194-2.9958h-0.5457z" fill="#21ad48" style="paint-order:markers stroke fill"/>
 </g>
</svg>
