<svg width="800px" height="800px" fill="none" version="1.1" viewBox="-20 0 190 190" xmlns="http://www.w3.org/2000/svg">
 <path d="m78.736 1.4436e-4 -8.5847 0.07787c-2.262 0.02133-4.0965 1.8922-4.0761 4.1542l0.08992 9.7821c-2.4934 0.47178-4.9629 1.155-7.3903 2.0471l-4.9669-8.4204c-0.74609-1.2665-2.1133-2.0396-3.5832-2.0255-0.72277 0.0069-1.4312 0.20277-2.0535 0.57035l-7.3933 4.362c-1.949 1.1504-2.6029 3.6855-1.4523 5.6345l4.9581 8.4071c-1.9571 1.6952-3.7475 3.5329-5.367 5.4886l-8.5132-4.8092c-0.62867-0.35488-1.3383-0.54027-2.0602-0.53344-1.4682 0.01387-2.8199 0.81301-3.5426 2.0911a0.7943 0.7943 0 0 0-0.0032 0l-4.222 7.4736c-1.1125 1.9699-0.41167 4.4893 1.5577 5.6028l8.5589 4.8372c-0.83456 2.4131-1.4822 4.8873-1.9202 7.4051l-9.8189 0.0896c-2.262 0.02133-4.0972 1.8892-4.0768 4.1513l0.08096 8.584c8e-3 0.88587 0.30694 1.7005 0.7943 2.3696-14.84 7.9547-22.978 20.255-26.147 31.484-3.1451 11.008-1.4294 21.269 4.6066 27.48 4.7653 4.9877 12.056 7.0044 20.649 5.829 1.5865 3.4946 4.1239 6.473 7.3225 8.5936 4.0346 2.7956 11.977 4.2257 16.742 4.2257 1.6701-5e-3 3.3357-0.17483 4.9721-0.50837 0.47366 1.0086 1.0042 1.9902 1.5886 2.9384 6.4331 10.325 16.393 9.1813 24.827 6.7987l25.017 35.819 14.296-0.50838-5.5593-19.443c14.963 4.1617 42.729-2.1923 41.41-19.665 1.0372-0.35584 2.0431-0.8015 3.0026-1.3337 3.4644-1.8727 6.4442-4.5255 8.7078-7.7484 2.2635-3.2229 3.7472-6.9277 4.3332-10.821 1.0293-5.8375 0.1537-11.851-2.4941-17.155 2.8115-6.3537 2.2243-14.217-1.9533-22.063-1.9967-3.7538-5.0883-6.8117-8.864-8.7682-1.259-7.3337-6.1228-14.58-13.289-20.168a0.7943 0.7943 0 0 0 0.18636-0.48629l-0.0619-6.568c-0.0213-2.2624-1.8889-4.0965-4.1513-4.0761l-9.8064 0.0896c-0.46762-2.4916-1.1411-4.9622-2.0262-7.3903l8.4204-4.9632a0.7943 0.7943 0 0 0 3e-3 -0.0036c1.9492-1.1508 2.6-3.6848 1.4486-5.6337l-4.359-7.3933a0.7943 0.7943 0 0 0 0-7.36e-4 0.7943 0.7943 0 0 0 0-7.36e-4 0.7943 0.7943 0 0 0 0-7.37e-4 0.7943 0.7943 0 0 0 0-7.36e-4c-0.74636-1.2646-2.1148-2.0362-3.5832-2.0226-0.72201 0.0066-1.4286 0.20373-2.0506 0.57035l-8.4071 4.9581c-1.6954-1.9571-3.53-3.7492-5.4856-5.3695l4.8056-8.5074a0.7943 0.7943 0 0 0 0-7.36e-4 0.7943 0.7943 0 0 0 0-7.37e-4 0.7943 0.7943 0 0 0 0-7.36e-4 0.7943 0.7943 0 0 0 0-7.36e-4c1.1118-1.9698 0.41216-4.4896-1.5569-5.6028l-7.4736-4.2228c-0.62868-0.35488-1.3412-0.54027-2.0631-0.53344-1.4682 0.01387-2.8206 0.81301-3.5434 2.0911l-4.8336 8.553c-2.4139-0.83542-4.8875-1.4818-7.4053-1.9202l-0.09077-9.816c-0.02169-2.262-1.8884-4.0936-4.1505-4.0732zm-6.5931 17.262c0.10833 0.01493 0.21059 0.04693 0.30431 0.1024 0.18746 0.11093 0.30766 0.31701 0.33821 0.53056l0.81935 5.7236c0.09493 0.66464-0.12882 1.2701-0.63293 1.6881-0.50405 0.41792-1.2543 0.67371-2.2466 0.81568l-2.2613 0.32277c-0.98685 0.14112-1.7779 0.10763-2.38-0.15179-0.60201-0.25941-0.99016-0.77718-1.0853-1.4427l-0.27041-1.8958c-0.09589-0.6704 0.13073-1.2774 0.63588-1.6969 0.50512-0.41952 1.2531-0.67456 2.2399-0.81568l3.6738-0.52757-0.25124-1.7684c-0.03093-0.21696 0.02848-0.45056 0.17978-0.6079 0.15122-0.15733 0.35928-0.23669 0.59535-0.2704 0.11802-0.01707 0.23277-0.02027 0.34114-0.0059zm6.0471 0.22325c0.10898-0.0089 0.22286 8e-4 0.34115 0.0224 0.2366 0.04267 0.44513 0.12405 0.59241 0.28811 0.1474 0.16405 0.19429 0.40182 0.15551 0.6175l-0.67051 3.7106 6.3382 1.1384 0.66755-3.707c0.03876-0.21557 0.16828-0.42293 0.36546-0.52459 0.19718-0.10133 0.41973-0.1056 0.66092-0.06187 0.23659 0.04267 0.44171 0.12235 0.58652 0.28811 0.1447 0.16576 0.18705 0.40224 0.14883 0.61451l-1.2408 6.8841c-0.03876 0.21557-0.16508 0.42229-0.36033 0.52459-0.19523 0.1024-0.41769 0.10453-0.65429 0.06187-0.23659-0.04267-0.44219-0.12117-0.58944-0.28512-0.14741-0.16405-0.19359-0.40181-0.15473-0.61749l0.30654-1.7035-7.2747-1.3123c-0.21302-0.0384-0.39928-0.1072-0.54008-0.25131-0.14074-0.14411-0.19973-0.36768-0.16431-0.56438l0.81271-4.5108c0.03872-0.21557 0.16802-0.42229 0.36325-0.52459 0.09771-0.0512 0.2013-0.07787 0.31021-0.08747zm-6.7014 3.9088-3.7077 0.53056c-0.52515 0.07467-0.89069 0.2048-1.0853 0.34187-0.19464 0.13717-0.23923 0.23392-0.21147 0.42805l0.27631 1.9143c0.02667 0.18667 0.09355 0.27157 0.31979 0.34997 0.22624 0.07893 0.6142 0.10027 1.1384 0.02453l2.3298-0.33227c0.5242-0.07467 0.89087-0.20544 1.0861-0.34411 0.19523-0.13867 0.23742-0.2384 0.21072-0.42517zm-11.777 1.7161c0.59689 0.04267 1.0927 0.38293 1.4022 0.93355l1.0861 1.9327c0.29602 0.52672 0.32277 1.1043 0.05524 1.6136-0.26751 0.50934-0.7859 0.95158-1.5326 1.3712l-3.0681 1.7249c-0.73071 0.41067-1.3611 0.62347-1.9201 0.59904-0.55902-0.02453-1.0287-0.32726-1.3123-0.8319l-0.31683-0.56437c-0.28128-0.50048-0.29472-1.0595-0.02432-1.5481 0.27039-0.48854 0.77977-0.91414 1.5105-1.3248l3.8875-2.1839c-0.06293-0.06187-0.1107-0.13952-0.23579-0.13995-0.18535-7.05e-4 -0.48431 0.0896-0.86578 0.30432l-1.3896 0.78176c-0.19517 0.10964-0.39657 0.17397-0.60493 0.14293-0.20838-0.03093-0.3877-0.17824-0.49-0.36032-0.10229-0.18197-0.13454-0.40853-0.05611-0.60491 0.07851-0.19637 0.23633-0.33835 0.434-0.4495l1.3904-0.78176c0.77688-0.43659 1.4537-0.65675 2.0506-0.61451zm31.924 0.76629c0.65661-0.0256 1.4077 0.22613 2.2864 0.71989l3.4159 1.9202c0.20158 0.11328 0.36405 0.25419 0.44653 0.45312 0.0825 0.19904 0.0533 0.43531-0.0523 0.62336-0.10558 0.18805-0.29258 0.3361-0.50546 0.36917-0.21289 0.03307-0.41957-0.03307-0.62114-0.14592l-3.4527-1.9386c-0.4625-0.25995-0.83269-0.38176-1.0706-0.39125-0.23792-0.0095-0.33201 0.03947-0.4281 0.21077l-0.94607 1.6881c-0.0925 0.16448-0.0913 0.27168 0.0405 0.47157 0.13184 0.19989 0.42844 0.45387 0.89008 0.71328l3.4535 1.9423c0.19917 0.1119 0.36084 0.24683 0.44652 0.44352 0.0855 0.19669 0.0592 0.43606-0.0464 0.62411-0.10558 0.18805-0.29258 0.33611-0.50546 0.36918-0.2129 0.03307-0.41957-0.03307-0.62113-0.14592l-3.4152-1.9172c-0.87862-0.49376-1.4858-1.0071-1.806-1.5797-0.32018-0.57259-0.31052-1.2169 0.01837-1.8023l0.93724-1.666c0.33134-0.58965 0.87891-0.9359 1.5355-0.9616zm-31.437 2.097-3.8691 2.1722c-0.36264 0.20384-0.58552 0.40117-0.67934 0.54603-0.09387 0.14485-0.09387 0.20192-0.02796 0.31904l0.28882 0.51211c0.06976 0.12405 0.1196 0.15573 0.29178 0.15179 0.1722-0.0041 0.45891-0.09067 0.82156-0.29472l2.9289-1.6468c0.37203-0.20907 0.60052-0.41333 0.69482-0.56512 0.0944-0.15179 0.09547-0.22389 0.01589-0.36619zm43.012 2.1405c0.21484 0.03627 0.39607 0.16693 0.55484 0.34485 0.15885 0.17792 0.26799 0.37195 0.27925 0.58944 0.0114 0.21749-0.0962 0.4304-0.25715 0.57397l-1.3344 1.1878 2.4728 2.7705c0.66741 0.74784 1.0735 1.4269 1.1885 2.0727 0.11498 0.64576-0.10682 1.2532-0.61156 1.7035l-2.4477 2.1869c-0.16347 0.14581-0.38926 0.23029-0.60495 0.19232-0.21567-0.0384-0.39194-0.17184-0.54892-0.34773-0.16006-0.17931-0.2739-0.36949-0.28882-0.58944-0.0143-0.21995 0.0974-0.43701 0.26083-0.58283l2.4632-2.1994c0.1436-0.12811 0.17479-0.22869 0.12088-0.44725-0.054-0.21856-0.23677-0.53472-0.5703-0.90848l-2.5472-2.8545-2.8883 2.5781c-0.16347 0.14581-0.38926 0.2303-0.60494 0.19232-0.21568-0.0384-0.39267-0.17184-0.54965-0.34774-0.15694-0.17589-0.26885-0.36427-0.28221-0.58283-0.0127-0.21856 0.0974-0.43477 0.26083-0.58059l5.3361-4.7621c0.16091-0.14357 0.3842-0.22528 0.59901-0.18933zm-53.432 1.7065c0.3927-0.016 0.77193 0.12363 1.0846 0.40373l0.94682 0.84363c0.14788 0.13259 0.24655 0.33622 0.2321 0.53643-0.01429 0.20021-0.1158 0.37013-0.25421 0.52459l-4.1107 4.5853 0.30431 0.27339c0.1293 0.11584 0.21516 0.13312 0.41851 0.05547 0.20335-0.07787 0.49693-0.29589 0.83188-0.66976l1.1163-1.2476c0.14947-0.16672 0.31736-0.29376 0.52461-0.33152 0.20726-0.03733 0.42436 0.04373 0.57987 0.18272 0.15551 0.13931 0.2603 0.34837 0.24537 0.55851-0.01429 0.21013-0.12025 0.3888-0.26968 0.55552l-1.12 1.2467c-0.6308 0.704-1.2233 1.1613-1.8185 1.3432-0.59513 0.18187-1.1964 0.0448-1.6718-0.38091l-1.6505-1.4803c-0.45072-0.40384-0.66154-0.94635-0.574-1.5171 0.08757-0.57077 0.4337-1.1583 1.0021-1.7927l2.181-2.4359c0.5553-0.61974 1.0793-1.0226 1.607-1.1848 0.132-0.04053 0.26404-0.06293 0.39495-0.06827zm-0.09653 1.7522c-0.05739-0.01387-0.11771-0.0062-0.19896 0.0192-0.1625 0.05013-0.40335 0.21664-0.67934 0.52459l-2.0756 2.3173c-0.284 0.31691-0.4301 0.58123-0.46567 0.75371-0.03563 0.17248-0.0064 0.24875 0.12739 0.36918l0.28515 0.25792 3.4748-3.8779-0.28882-0.25419c-0.06796-0.0608-0.12168-0.096-0.17905-0.10976zm24.337 0.46709c9.9333-0.37632 19.688 4.5888 25.14 13.832 1.3037 2.2106 2.2421 4.5276 2.8935 6.8863-0.74374 0.096-1.4875 0.19669-2.2274 0.33451-9.6974-4.7891-20.936-6.9649-31.717-6.683-6.7465 0.17643-13.314 1.3163-19.213 3.3798 2.215-5.5825 6.2269-10.506 11.856-13.826 4.2016-2.478 8.7536-3.7526 13.269-3.9236zm-34.318 5.9971c0.11008 2e-3 0.22065 0.0288 0.31904 0.0768l6.2917 3.0836c0.19977 0.09813 0.36088 0.28277 0.40305 0.49952 0.04224 0.21675-0.01589 0.43253-0.12088 0.64843-0.10368 0.21173-0.24021 0.38645-0.43768 0.48117-0.19744 0.09493-0.4362 0.07467-0.63293-0.0224l-2.4293-1.1914-2.7793 5.6713 2.4323 1.1914c0.19673 0.096 0.35922 0.27616 0.40303 0.49365 0.04384 0.21749-0.01269 0.43126-0.12087 0.65131-0.10368 0.21174-0.24021 0.38571-0.43766 0.48043-0.19746 0.09493-0.43622 0.07467-0.63294-0.02133l-6.2822-3.0776c-0.19974-0.09813-0.36198-0.28405-0.40303-0.50251-0.04096-0.21845 0.01888-0.43424 0.12675-0.6543 0.10368-0.21173 0.2392-0.38635 0.43767-0.47819 0.19848-0.09173 0.43261-0.064 0.6263 0.03093l2.5104 1.229 2.7793-5.6713-2.5221-1.2349c-0.19366-0.09493-0.35334-0.27168-0.39715-0.48406-0.04384-0.21248 0.01104-0.42411 0.115-0.63584 0.10581-0.21589 0.2396-0.39275 0.434-0.49291 0.09717-0.05013 0.20747-0.07253 0.31758-0.0704zm68.645 1.9953c0.27509 0.01387 0.54271 0.09813 0.78624 0.25269 0.48694 0.31019 0.8865 0.86283 1.2378 1.6387l1.3491 2.9812c0.34325 0.75798 0.50198 1.3969 0.43765 1.9452-0.064 0.54837-0.39263 0.99147-0.9026 1.2224l-1.1576 0.52096c-0.181 0.08213-0.40244 0.09067-0.57984-0.0029-0.17738-0.09387-0.29312-0.25451-0.37866-0.44352l-2.5376-5.6094-0.3728 0.17099c-0.1582 0.07147-0.20893 0.14208-0.21958 0.35958-0.0115 0.21749 0.0685 0.57291 0.27559 1.0301l0.69184 1.523c0.0917 0.20395 0.14261 0.4096 0.0939 0.61451-0.0491 0.20491-0.21353 0.37291-0.40384 0.45899-0.19018 0.0864-0.42154 0.09813-0.60787 0-0.18632-0.09813-0.30775-0.27061-0.4001-0.47456l-0.69218-1.5267c-0.38993-0.86102-0.57013-1.5874-0.49663-2.2053 0.0735-0.61792 0.44269-1.1109 1.0242-1.3742l2.0196-0.91584v7.36e-4c0.27563-0.1248 0.5583-0.18069 0.8334-0.16651zm0.0341 1.7441c-0.0587-0.0059-0.12117 0.0107-0.2033 0.048l-0.35072 0.15765 2.1471 4.7437 0.34997-0.15765c0.16619-0.07573 0.21654-0.14475 0.23574-0.31392 0.0192-0.16907-0.0373-0.4544-0.20779-0.83115l-1.2843-2.8353c-0.17558-0.38773-0.35605-0.62443-0.49952-0.72651-0.0716-0.0512-0.12789-0.07893-0.1872-0.08427zm-37.52 14.396c5.7916 0.04267 11.494 0.80086 16.432 2.1471-3.1349 2.1469-5.9027 4.7856-8.1964 7.8147-1.4447 1.8996-2.6602 3.9631-3.6215 6.1473-4.0346 4.94-12.533 5.2901-17.886 1.2872l-4.7658 3.2715c5.0512 8.6252 14.074 9.0547 20.793 7.0374 1.0444 5.945 4.1072 11.348 8.6724 15.296l5.2418-4.7658c-3.1928-5.3848-7.3858-13.676-0.84146-22.444 2.7162-3.6534 14.582-14.248 32.181-7.4176 7.2115 2.7869 13.23 7.9916 17.028 14.725-0.74656-0.048-1.4775-0.12747-2.2399-0.12747-5.353-0.0896-10.661 0.99478-15.551 3.1772-2.3239-0.59968-4.4124-1.8914-5.9867-3.704-1.5743-1.8126-2.5604-4.0606-2.8287-6.4465l-5.8614 0.54005c-0.57597 2.9499-0.3558 6.0003 0.63809 8.8367 0.99387 2.8365 2.7251 5.3567 5.0163 7.3019-2.6613 2.9386-4.6456 6.4253-5.8136 10.214l5.9408 2.8434c4.0822-7.3544 14.184-12.994 24.096-12.994h0.25418c3.9552 0.048 11.088 1.033 14.392 7.2437 2.9545 5.5436 3.3194 10.706 0.98444 14.185-2.0808 3.1292-6.0678 4.6543-10.96 4.1778l-1.1598 7.7035c2.2206 1.1723 4.6926 1.7853 7.2039 1.7853 2.5059 0 4.9715-0.6113 7.1884-1.7787 0.40863 2.1471 0.43583 4.3497 0.0789 6.5062-0.35744 2.3429-1.2468 4.573-2.6017 6.5172-1.355 1.9442-3.1393 3.552-5.2138 4.6972-5.4166 2.9862-13.613 1.4928-19.061-3.4631-3.5263-3.2086-8.6255-10.483-3.1772-23.048l-7.7676-3.0659c-5.2736 9.9436-5.6546 18.982-1.7153 26.464-16.504-1.3502-25.256 1.3179-37.312 5.003-7.958 2.4939-15.742 6.2425-19.888 0-2.875-4.3682-4.6541-8.7047 0-13.692 12.946-13.867 27.226-3.3515 41.172-9.8005l-1.7472-6.3536c-9.5147 1.4296-19.729-0.4288-28.862 0.50837l0.58799-11.993-5.4326 0.23797-5.4326 14.63c-3.0901 1.6774-5.7447 4.0539-7.7514 6.9417-2.7365 3.4692-4.4677 7.6223-5.0038 12.008-10.341 2.0014-16.011-0.84178-17.743-6.3536l3.3039-10.833-3.6532-3.0814-11.119 8.657c-4.1458 0.27007-8.5457-0.42901-11.421-3.3835-3.6217-3.7169-4.4796-10.642-2.2717-18.314 2.8751-9.9753 10.722-20.888 26.607-27.448-0.43092 2.0909-0.65485 4.2189-0.66755 6.3536 0.0064 2.6962 0.42946 5.3753 1.2548 7.9422l-5.0509 13.216 5.1622 2.5096 5.1629-6.5761c2.67 2.873 6.1381 4.8807 9.9589 5.7656l3.4793-6.7508c-5.9884-1.3978-10.436-10.357-10.436-16.027-0.13216-3.5117 0.69388-6.9927 2.3895-10.071 1.6958-3.0781 4.1973-5.6366 7.2363-7.4014 7.0288-4.5072 16.93-6.427 26.583-6.3566zm39.592 84.324a0.41013 0.41512 25.742 0 1 0.10558 0.0181l1.0338 0.32117a0.41013 0.41512 25.742 0 1 0.26816 0.51723l-0.49002 1.5598c0.28192 0.17525 0.54453 0.39051 0.77888 0.64694 0.23445 0.25653 0.42592 0.53845 0.57621 0.83627l1.582-0.36544a0.41013 0.41512 25.742 0 1 0.10693-0.0101 0.41013 0.41512 25.742 0 1 0.3824 0.32128l0.23287 1.0647a0.41013 0.41512 25.742 0 1-0.31319 0.49665l-1.5864 0.36618c-0.0256 0.67713-0.22783 1.3489-0.60277 1.9364l1.0912 1.1936a0.41013 0.41512 25.742 0 1-0.0267 0.58507l-0.80097 0.74496a0.41013 0.41512 25.742 0 1-0.58059-0.0213l-1.092-1.1944c-0.61109 0.32854-1.291 0.47692-1.9622 0.448l-0.49141 1.565a0.41013 0.41512 25.742 0 1-0.51584 0.27413l-1.0345-0.32053a0.41013 0.41512 25.742 0 1-0.26677-0.51723l0.49002-1.5606c-0.28214-0.17527-0.54507-0.38967-0.77951-0.6462-0.23447-0.25653-0.42591-0.53855-0.57619-0.83627l-1.582 0.36545a0.41013 0.41512 25.742 0 1-0.48925-0.31093l-0.23284-1.0655a0.41013 0.41512 25.742 0 1 0.31314-0.4959l1.5864-0.36619c0.026-0.67711 0.22864-1.3481 0.60345-1.9356l-1.0924-1.1952a0.41013 0.41512 25.742 0 1 0.0266-0.5858l0.80092-0.74421a0.41013 0.41512 25.742 0 1 0.29621-0.11054 0.41013 0.41512 25.742 0 1 0.28512 0.13184l1.0905 1.1937c0.61143-0.32907 1.2914-0.47701 1.9629-0.448l0.49141-1.5643a0.41013 0.41512 25.742 0 1 0.41046-0.29259zm-19.52 2.0904a0.99625 0.99625 0 0 1 0.85249 0.62997l1.0758 2.7469c0.94001-0.13226 1.9063-0.11915 2.8648 0.0501l1.1789-2.6975a0.99625 0.99625 0 0 1 0.87608-0.59607 0.99625 0.99625 0 0 1 0.43548 0.0821l2.111 0.92246a0.99625 0.99625 0 0 1 0.51356 1.3123l-1.1792 2.698c0.77494 0.58858 1.4409 1.2885 1.9821 2.0682l2.7469-1.0758a0.99625 0.99625 0 0 1 0.43842-0.0651 0.99625 0.99625 0 0 1 0.85248 0.62996l0.83998 2.1449a0.99625 0.99625 0 0 1-0.56438 1.2909l-2.7462 1.0758c0.13247 0.94005 0.11913 1.9063-0.05 2.8648l2.6968 1.1789a0.99625 0.99625 0 0 1 0.51432 1.3116l-0.92254 2.111a0.99625 0.99625 0 0 1-1.3123 0.5136l-2.6976-1.1795c-0.5886 0.77493-1.2884 1.4409-2.0683 1.982l1.0758 2.7469a0.99625 0.99625 0 0 1-0.56441 1.2909l-2.1449 0.84a0.99625 0.99625 0 0 1-1.2909-0.56443l-1.0765-2.7469c-0.93979 0.13227-1.9059 0.11894-2.864-0.0501l-1.1789 2.6975a0.99625 0.99625 0 0 1-1.3116 0.51435l-2.111-0.92322a0.99625 0.99625 0 0 1-0.51429-1.3115l1.1797-2.6975c-0.77494-0.58858-1.4409-1.2885-1.9821-2.0683l-2.7469 1.0758a0.99625 0.99625 0 0 1-1.2909-0.56438l-0.83998-2.1456a0.99625 0.99625 0 0 1 0.5644-1.2902l2.7469-1.0758c-0.13246-0.94037-0.11991-1.9067 0.04935-2.8655l-2.6975-1.1789a0.99625 0.99625 0 0 1-0.51357-1.3115l0.92323-2.111a0.99625 0.99625 0 0 1 0.87609-0.59605 0.99625 0.99625 0 0 1 0.43547 0.0821l2.6975 1.1797c0.5887-0.77515 1.2883-1.4416 2.0683-1.9828l-1.0758-2.7459a0.99625 0.99625 0 0 1 0.56443-1.291l2.1449-0.84074a0.99625 0.99625 0 0 1 0.4384-0.0661zm30.868 0.74784c0.3106 1e-3 0.6178 0.0629 0.92693 0.0917 0.54634 0.11211 1.3824-0.0459 1.5297 0.67501-0.0544 0.92032-0.20662 1.8358-0.2992 2.7542 1.1456 0.42486 2.1684 1.1782 2.9053 2.1537l2.3298-1.005c0.76287-0.34176 1.0115 0.52737 1.2334 1.047 0.17568 0.52919 0.73035 1.1728 0.17984 1.6608-0.82229 0.41079-1.6872 0.7375-2.5266 1.1148 0.20437 1.2056 0.0501 2.4669-0.42667 3.592 0.73216 0.56202 1.5002 1.0815 2.2083 1.6719 0.40118 0.51467-0.14379 0.99158-0.42368 1.3962-0.40225 0.46656-0.74432 1.3781-1.5326 0.94465l-2.0778-1.5474c-0.93952 0.78497-2.1088 1.2896-3.3245 1.4346-0.096 0.82263-0.19147 1.645-0.28735 2.4676-0.0404 0.8273-0.91959 0.69556-1.4774 0.6049-0.6049-0.11498-1.5645 0.0437-1.5834-0.85471l0.30133-2.5804c-1.1458-0.42485-2.1684-1.1788-2.9053-2.1545l-2.2812 0.98443c-0.78507 0.3888-1.0618-0.49185-1.2828-1.0257-0.20117-0.56575-0.79561-1.2979-0.0299-1.75 0.79253-0.34185 1.5852-0.68373 2.3777-1.0256-0.20449-1.2056-0.0502-2.4669 0.42668-3.592l-2.0418-1.5193c-0.70208-0.56266 0.0171-1.1886 0.35223-1.677 0.3522-0.44587 0.74207-1.2633 1.4375-0.81644l2.0778 1.5466c0.93962-0.78474 2.109-1.289 3.3246-1.4339 0.0587-0.50709 0.11851-1.0145 0.1776-1.5215 0.12597-0.59073-0.0597-1.4482 0.71178-1.6365zm-12.362 0.9247c-0.47829-0.0171-0.9648 0.15223-1.3521 0.51211-0.77463 0.71989-0.82795 1.9016-0.12086 2.6754 0.7072 0.77376 1.8794 0.81631 2.654 0.0971 0.77462-0.7199 0.82795-1.9017 0.12086-2.6754-0.3536-0.38688-0.82367-0.59125-1.302-0.60864zm12.242 4.6309c-2.0142-0.0101-3.832 1.6355-3.9737 3.6524-0.24833 2.1979 1.6091 4.3495 3.8307 4.376 2.2084 0.14262 4.2672-1.8178 4.1844-4.0392 0.0331-2.1444-1.8935-4.0641-4.0415-3.9892zm-27.504 0.65356c-2.1468-0.032-4.1867 1.2031-5.1069 3.3083-1.227 2.807 0.03347 6.0255 2.8405 7.2526 2.807 1.227 6.0248-0.0331 7.2518-2.8405 1.227-2.807-0.0335-6.0248-2.8404-7.2518-0.70176-0.30678-1.4293-0.45803-2.1449-0.46859zm57.692 1.8848c-0.11329 1e-3 -0.23573 0.0501-0.31093 0.13993-0.0757 0.0896-0.10355 0.20033-0.11121 0.31607-0.0101 0.12544 8e-3 0.24693 0.08 0.35072 0.0725 0.10355 0.19893 0.15969 0.31978 0.168 0.12075 8e-3 0.2544-0.0299 0.34112-0.1215 0.0864-0.0917 0.11883-0.20789 0.12758-0.33152 0.0101-0.12586-8e-3 -0.25003-0.0811-0.3537-0.0736-0.10355-0.19819-0.15969-0.31905-0.168-0.016-1e-3 -0.0331-2e-4 -0.0459 0zm-1.5392 1.9202v7.3e-4c-0.24385 0.0101-0.46529 0.13738-0.61749 0.3441-0.15221 0.20662-0.25141 0.4847-0.31904 0.83776l-0.1614 0.8591c-0.0769 0.40352-0.0821 0.73227 0.0181 0.99915 0.1013 0.26688 0.33194 0.4544 0.6175 0.50912l0.75083 0.14218c0.28393 0.0544 0.56521-0.0341 0.75668-0.24458 0.19148-0.21067 0.30742-0.5183 0.38465-0.92182l0.16427-0.85909c0.0768-0.40364 0.0821-0.73259-0.0181-0.99915-0.10028-0.26656-0.32705-0.45472-0.61089-0.50912l-0.7538-0.14219c-0.0725-0.0139-0.14293-0.0181-0.21141-0.016zm-7e-3 0.85983c0.0128-5e-3 0.0277-1e-3 0.0533 3e-3l0.75969 0.14581c0.0491 0.0101 0.0533 8e-3 0.0747 0.0811 0.0213 0.0725 0.0256 0.22123-0.0128 0.42516l-0.17025 0.89004c-0.0384 0.20138-0.096 0.33471-0.14293 0.39423-0.0469 0.0597-0.0533 0.0556-0.10242 0.0469l-0.75968-0.14293c-0.0533-0.0101-0.0544-0.0117-0.0747-0.0843-0.0213-0.0725-0.0256-0.21643 0.0128-0.41846l0.17024-0.89013c0.0395-0.20447 0.0971-0.34122 0.14294-0.40085 0.0236-0.0299 0.0352-0.0437 0.0491-0.0491zm-2.1677 2.8729c-0.16373 3e-3 -0.2912 0.13728-0.34709 0.27628l-0.64544 1.61c-0.1696 0.4224-0.23958 0.78357-0.17686 1.0949 0.0629 0.31136 0.28033 0.55521 0.58944 0.67936l1.3057 0.5246c0.3136 0.12596 0.64511 0.0971 0.90921-0.0864 0.26423-0.18433 0.46668-0.496 0.63883-0.92471l0.6366-1.5879c0.0373-0.0928 0.0565-0.19455 0.0245-0.29846-0.032-0.10355-0.12086-0.18773-0.21664-0.22624-0.0949-0.0384-0.21899-0.0404-0.31392 0.0129-0.0949 0.0533-0.15221 0.14016-0.18933 0.23286l-0.62635 1.5665c-0.1013 0.25151-0.21323 0.40481-0.30133 0.47158-0.0884 0.0672-0.14198 0.0747-0.2512 0.0309l-1.2843-0.515c-0.10445-0.0416-0.13547-0.0822-0.15189-0.18571-0.016-0.10355 0.0117-0.28127 0.10558-0.51797l0.64257-1.6011c0.0373-0.0928 0.0564-0.19382 0.0245-0.29772-0.032-0.10355-0.12085-0.18848-0.21666-0.22698-0.048-0.0192-0.10028-0.032-0.15551-0.0309zm-2.0692 6.5025c-0.34475 0.0213-0.66614 0.25514-0.99915 0.64245l-0.56811 0.66389c-0.26645 0.30987-0.43563 0.59328-0.48043 0.87456s0.0619 0.5552 0.28226 0.74497l0.99615 0.8562c0.0789 0.0671 0.19669 0.11121 0.30645 0.0896 0.10997-0.0213 0.19275-0.0885 0.2608-0.16725 0.0683-0.0789 0.12267-0.17131 0.12757-0.28288 5e-3 -0.11167-0.0556-0.22038-0.13344-0.28812l-0.99573-0.8562c-0.0437-0.0373-0.048-0.0427-0.0309-0.115 0.0171-0.0725 0.0896-0.20063 0.22326-0.35657l0.58943-0.68598c0.13569-0.15776 0.25313-0.248 0.32277-0.27626 0.0693-0.0277 0.0716-0.0245 0.115 0.0128l0.99616 0.85622c0.0789 0.0671 0.19669 0.11109 0.30656 0.0896 0.10997-0.0213 0.18975-0.0884 0.25791-0.168 0.0683-0.0789 0.12267-0.17067 0.12737-0.28224 5e-3 -0.11155-0.0556-0.22389-0.13408-0.29173l-0.99542-0.85622c-0.16554-0.14229-0.36714-0.2176-0.57397-0.2048zm-3.1772 3.2332c-0.28373 0.0309-0.57772 0.18261-0.90262 0.43392l-0.69184 0.53345c-0.32491 0.25151-0.54474 0.49653-0.64544 0.7633-0.10028 0.26688-0.0501 0.5584 0.12757 0.78838l0.4686 0.6049c0.17695 0.2287 0.44575 0.3472 0.72873 0.31606 0.283-0.0309 0.57483-0.18251 0.89963-0.43403l0.69184-0.53418c0.32491-0.25142 0.54433-0.49653 0.64544-0.76257 0.1013-0.26613 0.0523-0.5568-0.12458-0.7855l-0.46785-0.6049c-0.17813-0.23009-0.44554-0.34977-0.72948-0.31905zm8e-3 0.80683c0.0139 5e-3 0.0224 0.016 0.0384 0.0373l0.47157 0.61088c0.0309 0.0395 0.0363 0.0427 3e-3 0.112-0.032 0.0693-0.12757 0.18016-0.29184 0.30731l-0.71692 0.55478c-0.16224 0.12553-0.29184 0.18816-0.36617 0.20192-0.0747 0.0139-0.0779 0.0117-0.1084-0.0277l-0.47445-0.6145c-0.0331-0.0427-0.0352-0.0437-3e-3 -0.11121 0.032-0.0672 0.12607-0.17836 0.28884-0.30433l0.71616-0.55489c0.1647-0.12735 0.29803-0.19071 0.37207-0.2048h7.2e-4c0.0373-8e-3 0.0564-0.0101 0.0704-7e-3zm-3.945 0.91147c-0.1166-0.0181-0.22305 0.0203-0.3198 0.0779-0.0981 0.0587-0.18347 0.13344-0.22325 0.24533-0.0395 0.112-0.0128 0.23797 0.0437 0.33227 0.0555 0.0939 0.15233 0.17941 0.26966 0.19818 0.0832 0.0128 0.15616-0.0245 0.22987-0.0565-0.0556 0.0459-0.11617 0.0875-0.14293 0.1584-0.0395 0.10355-0.0213 0.22731 0.0309 0.31616l0.95275 1.6041c0.0533 0.0896 0.14997 0.16864 0.2608 0.18347 0.11087 0.0138 0.21078-0.0213 0.30059-0.0747 0.0896-0.0533 0.16736-0.12266 0.20779-0.22687 0.0404-0.10445 0.0191-0.22966-0.0341-0.31904l-0.94977-1.6041c-0.0523-0.0884-0.14998-0.1647-0.26007-0.18049-0.0747-0.0117-0.14036 0.0236-0.20777 0.0501 0.0619-0.0491 0.12895-0.0949 0.15775-0.17385 0.0405-0.11077 0.0171-0.23905-0.0395-0.33526-0.0576-0.0971-0.16011-0.17739-0.27627-0.19531zm-2.4676 1.4596c-0.0523 0.0101-0.10242 0.0288-0.15104 0.0512-0.0949 0.0469-0.18027 0.11245-0.22625 0.21365-0.0459 0.10129-0.032 0.22347 0.0129 0.31391l0.0991 0.20406c-0.0875 0.0427-0.16768 0.10242-0.2144 0.19894-0.0469 0.0971-0.0373 0.22026 7e-3 0.31017 0.0437 0.0896 0.13344 0.17216 0.23872 0.1952 0.10445 0.0224 0.20128-5e-3 0.28884-0.0459l0.64545 1.3248c0.0459 0.0928 0.13824 0.17856 0.24832 0.20192 0.11009 0.0236 0.21131-7e-3 0.30656-0.0533 0.0928-0.0448 0.17643-0.10716 0.224-0.20779 0.048-0.10028 0.0363-0.22358-0.0101-0.3168l-0.64256-1.3241 0.52759-0.25791c0.0896-0.0437 0.17248-0.10445 0.22026-0.20193 0.048-0.0971 0.0373-0.22037-7e-3 -0.31018-0.0437-0.0896-0.13257-0.17291-0.23871-0.1952-0.10558-0.0224-0.20533 7e-3 -0.29472 0.0491l-0.53057 0.25792-0.0991-0.2048c-0.0448-0.0917-0.13482-0.17782-0.24469-0.20192h-7.3e-4c-0.0544-0.0128-0.10738-0.0117-0.15914-1e-3zm-1.5776 1.3727v7.2e-4c-0.0512 5e-3 -0.0981 0.0192-0.14582 0.0363l-1.4707 0.54604c-0.38518 0.14293-0.66773 0.3088-0.84363 0.53343-0.1759 0.22475-0.2161 0.51861-0.11499 0.79137l0.26677 0.7169c0.10029 0.27114 0.32246 0.46326 0.60192 0.51797 0.27947 0.0544 0.6015-3e-3 0.98656-0.14603l1.4707-0.54304c0.0971-0.0363 0.18432-0.0884 0.24171-0.18271 0.0576-0.0939 0.0609-0.22006 0.0256-0.3168-0.0363-0.0971-0.12171-0.19158-0.227-0.22326-0.10557-0.032-0.20597-0.0101-0.30057 0.0256l-1.4862 0.54891a0.18865 0.18865 0 0 0 0 3e-3c-0.19231 0.0716-0.3346 0.0896-0.4097 0.0811-0.0736-0.0101-0.0768-0.0139-0.0928-0.0587l-0.26966-0.72651c-0.0191-0.0501-0.0236-0.0533 0.0277-0.10839 0.0501-0.0555 0.17687-0.13312 0.36993-0.2048l1.4854-0.5519c0.0971-0.0363 0.18507-0.0896 0.24246-0.18346 0.0576-0.0939 0.0597-0.21942 0.0245-0.31606-0.0267-0.0725-0.0778-0.14197-0.1488-0.18646-0.0716-0.0448-0.15595-0.0597-0.23211-0.0533zm-4.1078 1.4176v7.3e-4c-0.0523-2e-4 -0.10355 9e-3 -0.15553 0.0213-0.10242 0.0277-0.19807 0.0757-0.26378 0.16501-0.0661 0.0896-0.0789 0.21366-0.0523 0.31319l0.34112 1.2784c0.0128 0.0501 0.0181 0.0512-0.0363 0.1013-0.0556 0.0501-0.18486 0.11733-0.38539 0.17099l-0.83115 0.22325c-0.19819 0.0533-0.34463 0.0597-0.41845 0.0437-0.0736-0.016-0.0736-0.0224-0.0864-0.0716l-0.34112-1.2747c-0.0267-0.0992-0.10028-0.20065-0.20192-0.24533-0.1013-0.0448-0.20768-0.0363-0.31019-0.0101-0.10355 0.0277-0.20107 0.0736-0.26677 0.16436-0.0661 0.0907-0.0757 0.21291-0.0501 0.31019l0.34187 1.2754c0.0747 0.27936 0.27349 0.49302 0.54603 0.57397 0.27241 0.0811 0.60064 0.0523 0.99541-0.0533l0.80096-0.21365c0.39275-0.10445 0.69099-0.24715 0.88715-0.45312 0.19616-0.20599 0.26421-0.49227 0.18933-0.77216l-0.33824-1.2725c-0.0203-0.0747-0.0629-0.15008-0.13045-0.20191-0.0672-0.0523-0.15413-0.0736-0.23285-0.0747zm-4.6471 0.14293c-0.0533-5e-3 -0.10446-9e-5 -0.15552 0.0101-0.10355 0.0192-0.203 0.0608-0.27627 0.14294-0.0736 0.0821-0.10028 0.2065-0.08 0.31019l0.11787 0.62997-1.3838 0.25717c-0.39958 0.0747-0.70753 0.19329-0.91884 0.38464-0.2113 0.19136-0.30122 0.47382-0.24758 0.76043l0.13932 0.75082c0.0533 0.28471 0.23977 0.51307 0.5055 0.61452 0.26571 0.1013 0.59659 0.0992 0.99615 0.0245l0.89676-0.16725c0.4016-0.0747 0.71008-0.19413 0.92106-0.38464 0.21098-0.19052 0.30155-0.46956 0.24831-0.75382l-0.42516-2.2746c-0.0139-0.0757-0.0523-0.15403-0.11499-0.21078-0.0629-0.0565-0.14506-0.0864-0.22325-0.0928zm-13.062 1.7006c-0.10885-5e-3 -0.22486-3e-3 -0.347 3e-3l-2.122 0.10895c-0.0939 5e-3 -0.18784 0.0267-0.26667 0.0928-0.0789 0.0661-0.1169 0.18026-0.112 0.27626l0.14294 2.8014c5e-3 0.10355 0.0544 0.22037 0.14582 0.28512 0.0907 0.0651 0.19637 0.0768 0.30058 0.0716 0.10558-5e-3 0.20874-0.0277 0.29473-0.0992 0.0864-0.0725 0.12916-0.19446 0.12373-0.30059l-0.0341-0.65131 1.6571-0.0864c0.48737-0.0245 0.86507-0.11498 1.1384-0.30432 0.27329-0.18934 0.4176-0.49558 0.4001-0.83777l-0.0181-0.37504c-0.016-0.29941-0.14753-0.56086-0.37877-0.7265-0.23127-0.16556-0.54251-0.24299-0.9247-0.25718zm12.807 0.12672 0.17099 0.91221c0.0101 0.0501 0.0101 0.0565-0.0491 0.10242-0.0597 0.0459-0.19253 0.10242-0.39413 0.13995l-0.92768 0.17387c-0.20171 0.0373-0.34677 0.0341-0.4192 0.0129-0.0725-0.0213-0.0716-0.0277-0.08-0.0779l-0.14293-0.76043c-0.0101-0.0533-0.0128-0.0533 0.0469-0.0992s0.19413-0.10445 0.39637-0.14219zm-4.9824 0.0779c-0.0928 3e-3 -0.19029 0.0129-0.29185 0.0245l-0.86506 0.10896c-0.40767 0.0512-0.72427 0.15009-0.94678 0.32864-0.22249 0.17856-0.32736 0.45259-0.29109 0.74122l0.096 0.76045c0.0363 0.28693 0.20609 0.52554 0.46572 0.64245 0.25951 0.11691 0.59081 0.13451 0.9984 0.0832l0.86581-0.10839c0.40767-0.0512 0.72063-0.15158 0.94314-0.32939 0.22262-0.1777 0.33089-0.45142 0.29473-0.73825l-0.096-0.75969c-0.032-0.25257-0.16331-0.46943-0.3728-0.59604-0.2096-0.12672-0.47777-0.16992-0.80022-0.15776zm-3.8403 0.41857-0.34773 0.0309c-0.40715 0.0352-0.72384 0.11948-0.95275 0.28885-0.22892 0.1695-0.3439 0.44183-0.31906 0.73163l0.1111 1.3064a0.18865 0.18865 0 0 0 0 3e-3c0.0101 0.10242 0.0629 0.21174 0.15553 0.27338 0.0917 0.0619 0.19787 0.0736 0.30357 0.0651 0.10355-0.0101 0.20438-0.0352 0.28587-0.11121 0.0811-0.0769 0.11701-0.19808 0.10839-0.30133l-0.11109-1.3182c-5e-3 -0.0501-8e-3 -0.0501 0.0564-0.0896 0.064-0.0395 0.20395-0.0821 0.40897-0.0991l0.36618-0.0341c0.10242-9e-3 0.20256-0.0352 0.28224-0.112 0.08-0.0769 0.11088-0.19467 0.10243-0.29472a0.18865 0.18865 0 0 0 0-7.3e-4 0.18865 0.18865 0 0 0 0-7.4e-4 0.18865 0.18865 0 0 0 0-7.4e-4 0.18865 0.18865 0 0 0 0-7.3e-4c-0.0101-0.0992-0.0576-0.20811-0.1488-0.2704-0.0907-0.0619-0.19799-0.0736-0.3006-0.0651zm-4.2721 0.12736c0.28267-0.0139 0.48011 0.0203 0.58581 0.0747 0.10558 0.0533 0.13697 0.0992 0.14293 0.21665l0.016 0.34774c7e-3 0.11721-0.0171 0.16564-0.11787 0.22986-0.10028 0.064-0.29471 0.11882-0.57983 0.13343l-1.6689 0.0864-0.0501-1.0058zm8.1927 0.2033 7.2e-4 1e-3c0.10738 5e-3 0.17333 0.0245 0.20117 0.0427 0.0277 0.0181 0.0299 0.0256 0.0341 0.0661l0.096 0.76628c7e-3 0.0501 0.0102 0.0533-0.0523 0.096-0.0629 0.0427-0.20373 0.0917-0.40971 0.11787l-0.89673 0.115c-0.20353 0.0256-0.35137 0.0117-0.4222-0.016-0.0704-0.0256-0.0683-0.0277-0.0747-0.0779l-0.096-0.76927c-7e-3 -0.0533-0.0101-0.0576 0.0523-0.0992 0.0619-0.0416 0.19893-0.0896 0.403-0.11499l0.90036-0.11413c0.10355-0.0128 0.19115-0.0171 0.26304-0.0128z" fill="#900"/>
</svg>
