<svg width="820" height="200" version="1.1" viewBox="0 0 216.96 52.917" xmlns="http://www.w3.org/2000/svg">
 <g stroke-linecap="round" stroke-linejoin="round">
  <rect y="-1.4211e-14" width="216.96" height="52.917" fill="#44551c" stroke-width="1.3256"/>
  <rect x="5.2917" y="5.2917" width="206.38" height="42.333" fill="#fff" stroke-width=".26475"/>
  <rect x="7.9375" y="7.9375" width="201.08" height="37.042" fill="#1f3c90" stroke-width=".26382"/>
 </g>
 <path d="m26.458 13.229h-10.583l-2.6458 2.6458v10.583l2.6458 2.6458h7.9375v5.2917h-5.2917v-2.6458h-5.2917v5.2917l2.6458 2.6458h10.583l2.6458-2.6458v-10.583l-2.6458-2.6458h-7.9375v-5.2917h5.2917v2.6458h5.2917v-5.2917zm18.521 0v21.167h-5.2917v-21.167h-5.2917v23.812l2.6458 2.6458h10.583l2.6458-2.6458v-23.812zm23.812 0h-13.229v26.458h13.229l2.6458-2.6458v-8.7974l-1.7859-1.7859 1.7859-1.7529v-8.8305zm-2.6458 21.167h-5.2917v-5.2917h5.2917zm0-10.583h-5.2917v-5.2917h5.2917zm31.75-10.583-2.6458 13.229-2.6458-13.229h-5.2917l-2.6458 13.229-2.6458-13.229h-5.2917l5.2917 26.458h5.2917l2.6458-13.229 2.6458 13.229h5.2917l5.2917-26.458zm15.875 26.458h5.2917l-5.2917-26.458h-5.2917l-5.2917 26.458h5.2917l1.0583-5.2917h3.175zm-3.175-10.583 0.52917-2.6458 0.52916 2.6458zm19.05-15.875-2.6458 5.2917-2.6458-5.2917h-5.2917l5.2917 10.583v15.875h5.2917v-15.875l5.2917-10.583zm29.105 0h-10.583l-2.6458 2.6458v21.167l2.6458 2.6458h10.583l2.6458-2.6458v-21.167zm-2.6458 21.167h-5.2917v-15.875h5.2917zm21.167-21.167v21.167h-5.2917v-21.167h-5.2917v23.812l2.6458 2.6458h10.583l2.6458-2.6458v-23.812zm26.458 0h-15.875v5.2917h5.2917v21.167h5.2917v-21.167h5.2917z" fill="#fff" stroke-linecap="round" stroke-linejoin="round" stroke-width=".44294" aria-label="SUBWAY OUT"/>
</svg>
